<svg id="Nebuleuse_noir" data-name="Nebuleuse noir" xmlns="http://www.w3.org/2000/svg" width="376.739" height="72" viewBox="0 0 376.739 72">
  <g id="Groupe_3" data-name="Groupe 3" transform="translate(-60.824 -7.586)">
    <text id="LA_NÉBULEUSE" data-name="LA  NÉBULEUSE" transform="translate(60.824 70.586)" fill="#212121" font-size="60" font-family="Gulax-Regular, Gulax"><tspan x="0" y="0" xml:space="preserve">LA  NÉBULEUSE</tspan></text>
    <path id="Tracé_7" data-name="Tracé 7" d="M129.881,45.013l1.129,4.721,3.688-3.156-1.862,4.483,4.839-.386-4.141,2.532,4.141,2.532-4.839-.386,1.862,4.483-3.688-3.156L129.881,61.4l-1.129-4.721-3.688,3.156,1.862-4.483-4.839.386,4.141-2.532-4.141-2.532,4.839.386-1.862-4.483,3.688,3.156Z" fill="#212121"/>
    <path id="Tracé_8" data-name="Tracé 8" d="M429.769,45.067l1.129,4.721,3.688-3.156-1.862,4.483,4.839-.386-4.141,2.532,4.141,2.532-4.839-.386,1.862,4.483L430.9,56.735l-1.129,4.721-1.129-4.721-3.688,3.156,1.862-4.483-4.839.386,4.141-2.532-4.141-2.532,4.839.386-1.862-4.483,3.688,3.156Z" fill="#212121"/>
  </g>
</svg>
