<svg xmlns="http://www.w3.org/2000/svg" xmlns:xlink="http://www.w3.org/1999/xlink" width="297" height="279" viewBox="0 0 297 279"><defs><clipPath id="a"><rect width="297" height="279" transform="translate(1623 570.186)" fill="#fff" stroke="#707070" stroke-width="1"/></clipPath></defs><g transform="translate(-1623 -570.186)" clip-path="url(#a)"><g transform="translate(1634.397 569.877)"><path d="M776.2,292.676l31.148,130,101.792-86.9L857.749,459.2,991.3,448.586,877,518.311l114.3,69.725L857.749,577.419,909.14,700.853l-101.792-86.9-31.148,130-31.149-130-101.792,86.9L694.65,577.419,561.1,588.036l114.3-69.725L561.1,448.586,694.65,459.2,643.258,335.769l101.792,86.9Z" transform="translate(-561.096 -292.676)" fill="#938f90"/></g><g transform="translate(1784.513 769.877)"><path d="M565.837,287.274h-24.4v59.388h24.4" transform="translate(-541.435 -287.274)" fill="none" stroke="#000" stroke-miterlimit="10" stroke-width="13"/><path d="M603.575,287.274h24.4v59.388h-24.4" transform="translate(-539.99 -287.274)" fill="none" stroke="#000" stroke-miterlimit="10" stroke-width="13"/><path d="M584.737,292.676l3.423,14,11.187-9.356L593.7,310.6l14.678-1.143-12.562,7.507,12.562,7.507L593.7,323.332l5.648,13.289-11.187-9.356-3.423,14-3.423-14-11.187,9.356,5.648-13.289L561.1,324.475l12.562-7.507L561.1,309.462l14.678,1.143-5.648-13.289,11.187,9.356Z" transform="translate(-540.978 -287.274)"/></g></g></svg>