<svg xmlns="http://www.w3.org/2000/svg" width="46.728" height="48.817" viewBox="0 0 46.728 48.817"><path d="M583.713,292.56h.973l3.155,13.2,10.312-8.825.787.572-5.206,12.534,13.529-1.078.3.925-11.579,7.08,11.579,7.08-.3.925L593.734,323.9l5.206,12.534-.787.572-10.312-8.824-3.155,13.2h-.973l-3.155-13.2L570.246,337l-.787-.572,5.206-12.534-13.529,1.078-.3-.925,11.579-7.08-11.579-7.08.3-.925,13.529,1.078-5.206-12.534.787-.572,10.312,8.825Zm3.536,15.023L584.2,294.827l-3.049,12.757-9.965-8.528,5.031,12.113-13.075-1.042,11.19,6.842-11.19,6.842,13.075-1.042-5.031,12.113,9.965-8.528L584.2,339.11l3.049-12.757,9.965,8.528-5.031-12.113,13.075,1.042-11.19-6.842,11.19-6.842-13.075,1.042,5.031-12.113Z" transform="translate(-560.835 -292.56)" fill="#212121"/></svg>