<svg xmlns="http://www.w3.org/2000/svg" width="44.563" height="23.75" viewBox="0 0 44.563 23.75"><g transform="translate(-61.5 -168.988)"><path d="M100.37,181.563a6.423,6.423,0,0,0,4.692,6.428v4.26H62.5v-4.26a6.748,6.748,0,0,0,0-12.855V170.5h42.562v4.635A6.423,6.423,0,0,0,100.37,181.563Z" transform="translate(0 -0.512)" fill="#fff"/><path d="M106.063,193.25H61.5v-6.059l.779-.177a5.755,5.755,0,0,0,0-10.9l-.779-.177V169.5h44.562v6.434l-.779.177a5.755,5.755,0,0,0,0,10.9l.779.177Zm-42.562-2h40.562v-2.515a6.916,6.916,0,0,1-3.154-2.4,8.168,8.168,0,0,1,0-9.54,6.916,6.916,0,0,1,3.154-2.4V171.5H63.5v2.891a6.916,6.916,0,0,1,3.154,2.4,8.168,8.168,0,0,1,0,9.54,6.916,6.916,0,0,1-3.154,2.4Z" transform="translate(0 -0.512)" fill="#fff"/><path d="M1.5,3.716h-3V0h3Z" transform="translate(94.67 169.682)" fill="#212121"/><path d="M1.5,3.716h-3V0h3Z" transform="translate(94.655 182.209)" fill="#212121"/><path d="M1.5,3.716h-3V0h3Z" transform="translate(94.655 175.953)" fill="#212121"/><path d="M1.5,3.716h-3V0h3Z" transform="translate(94.655 188.466)" fill="#212121"/></g></svg>