<?xml version="1.0" standalone="no"?>
<!DOCTYPE svg PUBLIC "-//W3C//DTD SVG 20010904//EN"
 "http://www.w3.org/TR/2001/REC-SVG-20010904/DTD/svg10.dtd">
<svg version="1.0" xmlns="http://www.w3.org/2000/svg"
 width="202.000000pt" height="202.000000pt" viewBox="0 0 202.000000 202.000000"
 preserveAspectRatio="xMidYMid meet">
<metadata>
Created by potrace 1.14, written by Peter Selinger 2001-2017
</metadata>
<g transform="translate(0.000000,202.000000) scale(0.100000,-0.100000)"
fill="#000000" stroke="none">
<path d="M2 1008 l3 -723 305 0 305 0 3 128 c2 116 1 127 -15 128 -10 0 -91 1
-180 1 l-163 1 0 463 0 464 180 0 180 0 0 130 0 130 -310 0 -310 0 2 -722z"/>
<path d="M1401 1600 l0 -130 179 0 180 0 0 -464 0 -463 -162 -1 c-90 0 -171 0
-180 -1 -15 -1 -17 -14 -15 -128 l2 -128 308 -1 307 -1 0 723 0 724 -309 0
-309 0 -1 -130z"/>
<path d="M979 1388 c-13 -51 -24 -95 -24 -98 -7 -35 -18 -70 -22 -70 -5 0
-109 85 -123 100 -12 13 -90 71 -90 67 0 -3 23 -58 50 -123 28 -65 50 -121 50
-125 0 -3 -12 -5 -27 -3 -29 3 -165 14 -220 18 -18 1 -33 1 -33 0 0 -1 26 -17
57 -35 31 -18 78 -46 104 -63 26 -17 55 -36 65 -41 14 -9 -3 -23 -105 -83 -66
-40 -121 -75 -121 -78 0 -3 4 -3 8 0 4 2 48 7 97 11 50 3 109 8 133 11 23 3
42 2 42 -4 0 -5 -22 -61 -50 -125 -27 -64 -50 -119 -50 -122 0 -5 163 126 180
145 35 37 37 35 70 -105 18 -75 34 -134 36 -132 2 2 17 58 33 126 16 67 32
125 35 128 6 6 54 -31 160 -121 68 -58 68 -58 0 96 -24 55 -44 105 -44 110 0
5 19 7 43 4 23 -3 83 -8 132 -11 50 -4 94 -10 99 -13 5 -3 6 0 2 6 -3 6 -43
32 -89 58 -45 26 -97 57 -115 69 l-32 22 120 73 c66 39 120 74 120 75 0 2 -10
2 -22 0 -13 -2 -61 -7 -108 -10 -47 -3 -100 -8 -117 -9 -18 -2 -33 0 -33 4 0
4 23 60 50 125 28 65 49 119 48 121 -2 1 -48 -35 -103 -81 -55 -46 -103 -84
-106 -85 -4 0 -21 59 -39 130 -18 72 -34 130 -35 130 -2 0 -13 -42 -26 -92z"/>
</g>
</svg>
